HIERARCHY
ROOT Hips
{
	OFFSET 0.000000 0.000000 0.000000
	CHANNELS 6 Xposition Yposition Zposition Zrotation Yrotation Xrotation 
	JOINT LowerBack
	{
		OFFSET 0.000000 0.000000 0.000000
		CHANNELS 3 Zrotation Yrotation Xrotation
		JOINT Spine
		{
			OFFSET 0.028270 2.035590 -0.193380
			CHANNELS 3 Zrotation Yrotation Xrotation
			JOINT Spine1
			{
				OFFSET 0.056720 2.048850 -0.042750
				CHANNELS 3 Zrotation Yrotation Xrotation
				JOINT Neck
				{
					OFFSET 0.000000 0.000000 0.000000
					CHANNELS 3 Zrotation Yrotation Xrotation
					JOINT Neck1
					{
						OFFSET -0.054170 1.746240 0.172020
						CHANNELS 3 Zrotation Yrotation Xrotation
						JOINT Head
						{
							OFFSET 0.104070 1.761360 -0.123970
							CHANNELS 3 Zrotation Yrotation Xrotation
							End Site
							{
								OFFSET 0.000000 0.000000 0.000000
							}
						}
					}
				}
				JOINT LeftShoulder
				{
					OFFSET 0.000000 0.000000 0.000000
					CHANNELS 3 Zrotation Yrotation Xrotation
					JOINT LeftArm
					{
						OFFSET 3.362410 1.200890 -0.311210
						CHANNELS 3 Zrotation Yrotation Xrotation
						JOINT LeftForeArm
						{
							OFFSET 4.983000 -0.000000 -0.000000
							CHANNELS 3 Zrotation Yrotation Xrotation
							JOINT LeftHand
							{
								OFFSET 3.483560 -0.000000 -0.000000
								CHANNELS 3 Zrotation Yrotation Xrotation
								JOINT LeftFingerBase
								{
									OFFSET 0.000000 0.000000 0.000000
									CHANNELS 3 Zrotation Yrotation Xrotation
									JOINT LeftHandIndex1
									{
										OFFSET 0.715260 -0.000000 -0.000000
										CHANNELS 3 Zrotation Yrotation Xrotation
										End Site
										{
											OFFSET 0.000000 0.000000 0.000000
										}
									}
								}
								JOINT LThumb
								{
									OFFSET 0.000000 0.000000 0.000000
									CHANNELS 3 Zrotation Yrotation Xrotation
									End Site
									{
										OFFSET 0.000000 0.000000 0.000000
									}
								}
							}
						}
					}
				}
				JOINT RightShoulder
				{
					OFFSET 0.000000 0.000000 0.000000
					CHANNELS 3 Zrotation Yrotation Xrotation
					JOINT RightArm
					{
						OFFSET -3.136600 1.374050 -0.404650
						CHANNELS 3 Zrotation Yrotation Xrotation
						JOINT RightForeArm
						{
							OFFSET -5.241900 -0.000000 -0.000000
							CHANNELS 3 Zrotation Yrotation Xrotation
							JOINT RightHand
							{
								OFFSET -3.444170 -0.000000 -0.000000
								CHANNELS 3 Zrotation Yrotation Xrotation
								JOINT RightFingerBase
								{
									OFFSET 0.000000 0.000000 0.000000
									CHANNELS 3 Zrotation Yrotation Xrotation
									JOINT RightHandIndex1
									{
										OFFSET -0.622530 -0.000000 -0.000000
										CHANNELS 3 Zrotation Yrotation Xrotation
										End Site
										{
											OFFSET 0.000000 0.000000 0.000000
										}
									}
								}
								JOINT RThumb
								{
									OFFSET 0.000000 0.000000 0.000000
									CHANNELS 3 Zrotation Yrotation Xrotation
									End Site
									{
										OFFSET 0.000000 0.000000 0.000000
									}
								}
							}
						}
					}
				}
			}
		}
	}
}
}
MOTION
Frames: 7
Frame Time: 0.008333
4.394411 17.381143 1.284320 -176.426598 -58.550876 -161.095579 2.328721 -6.344718 3.333597 0.735271 -6.342716 -1.459229 -2.954320 -6.486610 3.083707 15.775724 -16.162355 -6.385001 -0.514226 -0.050838 0.255905 0.000000 0.000000 0.000000 25.525406 0.623582 3.231506 22.659855 -30.928112 -88.687684 2.153881 -2.024980 -0.144663 19.534831 8.145340 1.422972 -0.670286 0.143618 -0.000000 0.000000 0.000000 0.000000 0.000000 0.000000 0.000000 9.146001 -17.415727 -1.984428 58.592142 17.897052 45.200773 179.429183 67.619392 179.967636 -7.476483 5.245121 -0.381843 0.234521 -0.437756 0.000000 0.000000 0.000000 0.000000 0.000000 0.000000 0.000000 
4.388487 17.383925 1.288169 -176.669044 -58.365313 -160.798432 2.412222 -6.192437 3.204177 0.714993 -6.209541 -1.473861 -3.063340 -6.351142 3.110917 15.474835 -16.505469 -6.250163 -0.618873 -0.060529 0.291620 0.000000 0.000000 0.000000 25.968288 0.212602 3.194792 20.296044 -30.972644 -79.650240 1.211830 -5.237097 -0.050598 6.799641 9.274942 0.564043 -0.234618 0.100134 -0.000000 0.000000 0.000000 0.000000 0.000000 0.000000 0.000000 9.048942 -17.576182 -2.145901 59.379851 16.110374 44.573233 179.490209 67.465413 179.966798 -7.412416 5.044721 -0.364449 0.223410 -0.433812 0.000000 0.000000 0.000000 0.000000 0.000000 0.000000 0.000000 
4.384378 17.387387 1.291212 -176.951322 -58.226668 -160.521284 2.578123 -5.996038 3.069695 0.679876 -6.040752 -1.491339 -3.287920 -6.174249 3.078264 15.102428 -16.795491 -6.018840 -0.772426 -0.075295 0.352580 0.000000 0.000000 0.000000 26.142507 -0.399677 3.078765 18.052088 -30.572558 -70.851734 0.544659 -9.488044 0.024330 -3.038299 7.483778 -0.201303 0.115560 0.176673 0.000000 0.000000 0.000000 0.000000 0.000000 0.000000 0.000000 8.983090 -17.760038 -2.260432 60.256825 14.200649 43.880417 179.543034 67.284654 179.965810 -7.334082 4.927023 -0.352357 0.212033 -0.434693 0.000000 0.000000 0.000000 0.000000 0.000000 0.000000 0.000000 
4.382120 17.391026 1.294251 -177.255468 -58.129873 -160.266982 2.804878 -5.786533 2.955845 0.636178 -5.863585 -1.506141 -3.593338 -5.985223 3.014240 14.703373 -17.039782 -5.742338 -0.956566 -0.092875 0.425181 0.000000 0.000000 0.000000 26.018186 -1.026580 2.907913 16.129811 -29.847434 -63.419768 0.191323 -14.546799 0.075160 -9.462999 4.459654 -0.355980 0.329106 0.298710 0.000000 0.000000 0.000000 0.000000 0.000000 0.000000 0.000000 8.967349 -17.934901 -2.339388 61.182937 12.273776 43.136207 179.587782 67.095520 179.964834 -7.231761 4.897476 -0.345466 0.200218 -0.439543 0.000000 0.000000 0.000000 0.000000 0.000000 0.000000 0.000000 
4.381664 17.394333 1.297922 -177.566650 -58.066418 -160.035718 3.077424 -5.591735 2.879888 0.589634 -5.703473 -1.516412 -3.948096 -5.811454 2.931498 14.301747 -17.244571 -5.455049 -1.155060 -0.111517 0.500531 0.000000 0.000000 0.000000 25.634097 -1.553824 2.677317 14.455574 -28.946879 -57.592279 0.089832 -20.284409 0.105518 -13.088694 1.561591 -0.135882 0.432015 0.410857 -0.000000 0.000000 0.000000 0.000000 0.000000 0.000000 0.000000 8.993793 -18.073449 -2.387390 62.138722 10.416482 42.368605 179.622766 66.926433 179.963983 -7.099992 4.951175 -0.342677 0.188130 -0.447462 0.000000 0.000000 0.000000 0.000000 0.000000 0.000000 0.000000 
4.382738 17.396833 1.302501 -177.876544 -58.026981 -159.824640 3.382401 -5.428447 2.847566 0.542928 -5.575980 -1.524205 -4.331991 -5.669835 2.827203 13.907962 -17.411249 -5.171031 -1.357361 -0.130280 0.575365 0.000000 0.000000 0.000000 25.066295 -1.971378 2.378324 12.825258 -27.919606 -53.106332 0.147422 -26.679540 0.121219 -14.698178 -0.565321 0.141151 0.465268 0.493714 -0.000000 0.000000 0.000000 0.000000 0.000000 0.000000 0.000000 9.046387 -18.160002 -2.402531 63.114006 8.678395 41.604453 179.646016 66.807567 179.963330 -6.939727 5.072488 -0.342686 0.176123 -0.457577 0.000000 0.000000 0.000000 0.000000 0.000000 0.000000 0.000000 
4.384853 17.398273 1.308040 -178.177635 -58.004333 -159.629946 3.705401 -5.303985 2.855487 0.496844 -5.487549 -1.533154 -4.731630 -5.567584 2.693655 13.529335 -17.542284 -4.894237 -1.557406 -0.148733 0.649133 0.000000 0.000000 0.000000 24.396497 -2.328101 2.011069 11.063094 -26.737303 -49.586727 0.276615 -33.707974 0.125976 -14.757798 -1.721170 0.302983 0.456319 0.547838 -0.000000 0.000000 0.000000 0.000000 0.000000 0.000000 0.000000 9.112792 -18.190961 -2.380950 64.097796 7.084530 40.864266 179.656037 66.755837 179.962884 -6.760003 5.240096 -0.344289 0.164770 -0.469106 0.000000 0.000000 0.000000 0.000000 0.000000 0.000000 0.000000 
